# xmcd CD database file
#
# Track frame offsets:
#	150
#	21462
#	42052
#	68072
#	95295
#
# Disc length: 1662 seconds
#
# Revision: 1
# Processed by: cddbd v1.5.1PL0 Copyright (c) Steve Scherf et al.
# Submitted via: CDex 1.51
#
DISCID=37067c05
DTITLE=菊地成孔 - CHANSONS EXTRAITES DE DEGUSTATION A JAZZ
DYEAR=2004
DGENRE=Jazz
TTITLE0=The Wizard Hits It Even on a Rainy Day
TTITLE1=Joan of Arc in the Money Jungle
TTITLE2=Samba de Couleurs
TTITLE3=The Christmas Song
TTITLE4=Isfahan
EXTD=YEAR: 2004
EXTT0=
EXTT1=
EXTT2=
EXTT3=
EXTT4=
PLAYORDER=
